M48
;Layer_Color=9474304
;FILE_FORMAT=2:3
INCH
;TYPE=PLATED
T01F00S00C0.030
T02F00S00C0.035
T03F00S00C0.039
T04F00S00C0.118
%
T01
X02368Y02190
T02
X01731Y00201
X01900Y00203
Y00596
X01731Y00594
X02368Y00441
X02762
X01128Y00574
Y00180
T03
X03158Y00232
X03339Y00230
Y00330
Y00430
X03158Y00660
X02954Y00437
Y00339
X02233Y00793
X02133
X02033
X01933
X01833
X01733
X01633
X01533
X01433
X01333
X01233
X01133
X01033
X00933
X00833
X00733
X00633
X00533
X00433
X01398Y00183
X01498
X01533Y01856
X01433
X01333
X01233
X01133
X01033
X00933
X00833
X00733
X00633
X00533
X00433
X00226Y02366
Y02465
X00704Y02473
Y02375
X01163Y02469
X01263
X01363
X01463
X01563
Y02169
X01463
X01458Y02079
X01363Y02169
X01263
X01163
X01663
X01763
X01863
Y02469
X01763
X01663
X01633Y01856
X01733
X01833
X01933
X02033
X02133
X02233
X02102Y02079
X02686Y02150
X02784
X02656Y01667
X02558
X02992Y01553
X02995Y01147
X03363Y01107
Y01007
Y01207
X03349Y01723
Y01823
Y01923
X03138Y02401
Y02499
X02370Y02565
T04
X02614Y00821
X00288Y00322
X00320Y02066
X03540Y02571
M30
