%FSDAX23Y23*%
%MOMM*%
%SFA1B1*%

%IPPOS*%
%ADD10C,1.269997*%
%ADD11C,1.999996*%
%ADD12R,1.999996X1.999996*%
%ADD13R,1.999996X1.999996*%
%ADD14C,5.999988*%
%ADD15R,1.899996X1.999996*%
%ADD16R,1.999996X1.899996*%
%LNpcb1-1*%
%LPD*%
G54D10*
X75999Y39449D02*
X76037Y39412D01*
Y29162D02*
X76074Y29124D01*
X60149Y55624D02*
X60174Y55649D01*
Y65124D02*
X60199Y65149D01*
G54D11*
X47314Y62709D03*
X44774D03*
X42234D03*
X39694D03*
X37154D03*
X34614D03*
X32074D03*
X29534D03*
X47314Y55089D03*
X44774D03*
X42234D03*
X39694D03*
X37154D03*
X34614D03*
X32074D03*
X53399Y52799D03*
X37024D03*
X10994Y47149D03*
X54174D03*
X51634D03*
X49094D03*
X46554D03*
X44014D03*
X41474D03*
X38934D03*
X36394D03*
X33854D03*
X31314D03*
X28774D03*
X26234D03*
X23694D03*
X21154D03*
X18614D03*
X16074D03*
X13534D03*
X10994Y20149D03*
X13534D03*
X16074D03*
X18614D03*
X21154D03*
X23694D03*
X26234D03*
X28774D03*
X31314D03*
X33854D03*
X36394D03*
X38934D03*
X41474D03*
X44014D03*
X46554D03*
X49094D03*
X51634D03*
X54174D03*
X56714D03*
X84799Y08384D03*
Y05844D03*
X76074Y29124D03*
X75999Y39449D03*
X60199Y65149D03*
X60149Y55624D03*
X35499Y04649D03*
X38039D03*
X67474Y42349D03*
X17874Y60325D03*
X85424Y25569D03*
Y28109D03*
X43974Y15099D03*
X85074Y43774D03*
Y46314D03*
X28649Y04574D03*
X70724Y54599D03*
X79699Y63474D03*
X05749Y62599D03*
X48249Y15149D03*
X70149Y11199D03*
X75024Y08599D03*
X80224Y05886D03*
G54D12*
X29534Y55089D03*
X85424Y30649D03*
X43974Y05099D03*
X85074Y48854D03*
X28649Y14574D03*
X48249Y05149D03*
X80224Y16762D03*
G54D13*
X56714Y47149D03*
X84799Y10924D03*
X60149Y11199D03*
G54D14*
X08124Y52474D03*
X89924Y65299D03*
X66399Y20849D03*
X07324Y08174D03*
G54D15*
X64974Y42349D03*
X68224Y54599D03*
G54D16*
X17874Y62824D03*
X79699Y60974D03*
X05749Y60099D03*
X75024Y11099D03*
M02*