%FSDAX23Y23*%
%MOMM*%
%SFA1B1*%

%IPPOS*%
%ADD10C,1.269997*%
%ADD11C,1.999996*%
%ADD12R,1.999996X1.999996*%
%ADD13R,1.999996X1.999996*%
%ADD14C,5.999988*%
%ADD15R,1.899996X1.999996*%
%ADD16R,1.999996X1.899996*%
%ADD17C,1.193798*%
%ADD18C,0.634999*%
%ADD19C,0.761998*%
%ADD20C,0.533399*%
%ADD21C,0.253999*%
%LNpcb1-1*%
%LPD*%
G36*
X52004Y68944D02*
X51969Y68917D01*
X47550Y64498*
X47492Y64509*
X47137*
X46789Y64440*
X46462Y64305*
X46167Y64108*
X46044Y63985*
X45922Y64108*
X45627Y64305*
X45299Y64440*
X44952Y64509*
X44610*
X40172Y68947*
X40221Y69064*
X51964*
X52004Y68944*
G37*
G36*
X38934Y64457D02*
X38910Y64333D01*
X38842Y64305*
X38547Y64108*
X38424Y63985*
X38302Y64108*
X38007Y64305*
X37679Y64440*
X37332Y64509*
X36977*
X36629Y64440*
X36302Y64305*
X36007Y64108*
X35884Y63985*
X35762Y64108*
X35467Y64305*
X35139Y64440*
X34792Y64509*
X34450*
X33628Y65332*
X33449Y65469*
X32656Y66262*
X32705Y66379*
X37012*
X38934Y64457*
G37*
G36*
X88824Y68937D02*
X88466Y68821D01*
X87933Y68549*
X87449Y68198*
X87026Y67775*
X86674Y67291*
X86403Y66758*
X86218Y66189*
X86124Y65599*
Y65000*
X86218Y64410*
X86393Y63870*
X86283Y63801*
X81167Y68917*
X81131Y68944*
X81172Y69064*
X88804*
X88824Y68937*
G37*
G36*
X23418Y66262D02*
X19792Y62636D01*
X19674Y62684*
Y64574*
X19002*
Y65933*
X19448Y66379*
X23369*
X23418Y66262*
G37*
G36*
X94064Y00934D02*
X33932D01*
Y03390*
X34036Y03447*
X34156*
X34352Y03251*
X34647Y03054*
X34974Y02919*
X35322Y02849*
X35677*
X36024Y02919*
X36352Y03054*
X36647Y03251*
X36898Y03502*
X37095Y03797*
X37230Y04124*
X37299Y04472*
Y04827*
X37230Y05174*
X37095Y05502*
X36898Y05797*
X36647Y06048*
X36352Y06245*
X36024Y06380*
X35677Y06449*
X35322*
X34974Y06380*
X34647Y06245*
X34352Y06048*
X34101Y05797*
X34038Y05702*
X30061*
X30048Y05722*
X29797Y05973*
X29502Y06170*
X29174Y06305*
X28827Y06374*
X28472*
X28124Y06305*
X27797Y06170*
X27502Y05973*
X27251Y05722*
X27054Y05427*
X26919Y05099*
X26849Y04752*
Y04397*
X26919Y04049*
X27054Y03722*
X27191Y03517*
X27123Y03390*
X00934*
Y24251*
X01052Y24300*
X08968Y16384*
X09201Y16205*
X09473Y16092*
X09765Y16054*
Y16054*
X23308*
Y16054*
X23599Y16092*
X23871Y16205*
X24105Y16384*
X26070Y18349*
X26412*
X26759Y18419*
X27087Y18554*
X27382Y18751*
X27504Y18874*
X27627Y18751*
X27699Y18704*
Y16374*
X26849*
Y12774*
X30449*
Y16374*
X29850*
Y18704*
X29922Y18751*
X30044Y18874*
X30167Y18751*
X30462Y18554*
X30789Y18419*
X31137Y18349*
X31492*
X31839Y18419*
X32167Y18554*
X32462Y18751*
X32584Y18874*
X32707Y18751*
X33002Y18554*
X33329Y18419*
X33677Y18349*
X34032*
X34379Y18419*
X34707Y18554*
X35002Y18751*
X35124Y18874*
X35247Y18751*
X35542Y18554*
X35869Y18419*
X36217Y18349*
X36572*
X36919Y18419*
X37247Y18554*
X37542Y18751*
X37664Y18874*
X37787Y18751*
X38082Y18554*
X38409Y18419*
X38757Y18349*
X39112*
X39459Y18419*
X39787Y18554*
X40082Y18751*
X40333Y19002*
X40530Y19297*
X40665Y19624*
X40734Y19972*
Y20327*
X40665Y20674*
X40530Y21002*
X40333Y21297*
X40082Y21548*
X39787Y21745*
X39459Y21880*
X39112Y21949*
X38757*
X38409Y21880*
X38082Y21745*
X37787Y21548*
X37664Y21425*
X37542Y21548*
X37247Y21745*
X36919Y21880*
X36572Y21949*
X36217*
X35869Y21880*
X35542Y21745*
X35247Y21548*
X35124Y21425*
X35002Y21548*
X34707Y21745*
X34379Y21880*
X34032Y21949*
X33677*
X33329Y21880*
X33002Y21745*
X32707Y21548*
X32584Y21425*
X32462Y21548*
X32167Y21745*
X31839Y21880*
X31492Y21949*
X31137*
X30789Y21880*
X30462Y21745*
X30167Y21548*
X30044Y21425*
X29922Y21548*
X29627Y21745*
X29299Y21880*
X28952Y21949*
X28597*
X28249Y21880*
X27922Y21745*
X27627Y21548*
X27504Y21425*
X27382Y21548*
X27087Y21745*
X26759Y21880*
X26412Y21949*
X26057*
X25709Y21880*
X25382Y21745*
X25087Y21548*
X24964Y21425*
X24842Y21548*
X24822Y21561*
Y24004*
X24783Y24296*
X24671Y24568*
X24491Y24801*
X10296Y38997*
Y45376*
X10402Y45447*
X10469Y45419*
X10817Y45349*
X11172*
X11519Y45419*
X11847Y45554*
X12142Y45751*
X12264Y45874*
X12387Y45751*
X12682Y45554*
X13009Y45419*
X13357Y45349*
X13712*
X14059Y45419*
X14387Y45554*
X14682Y45751*
X14804Y45874*
X14927Y45751*
X15222Y45554*
X15549Y45419*
X15897Y45349*
X16252*
X16599Y45419*
X16927Y45554*
X17222Y45751*
X17344Y45874*
X17467Y45751*
X17762Y45554*
X18089Y45419*
X18437Y45349*
X18792*
X19139Y45419*
X19467Y45554*
X19762Y45751*
X19884Y45874*
X20007Y45751*
X20302Y45554*
X20629Y45419*
X20977Y45349*
X21332*
X21679Y45419*
X22007Y45554*
X22302Y45751*
X22553Y46002*
X22750Y46297*
X22885Y46624*
X22954Y46972*
Y47327*
X22885Y47674*
X22750Y48002*
X22639Y48167*
X22699Y48279*
X24690*
X24750Y48167*
X24639Y48002*
X24504Y47674*
X24434Y47327*
Y46972*
X24504Y46624*
X24639Y46297*
X24836Y46002*
X25087Y45751*
X25382Y45554*
X25709Y45419*
X26057Y45349*
X26412*
X26759Y45419*
X27087Y45554*
X27382Y45751*
X27504Y45874*
X27627Y45751*
X27922Y45554*
X28249Y45419*
X28597Y45349*
X28952*
X29299Y45419*
X29627Y45554*
X29922Y45751*
X30044Y45874*
X30167Y45751*
X30462Y45554*
X30789Y45419*
X31137Y45349*
X31492*
X31839Y45419*
X32167Y45554*
X32462Y45751*
X32584Y45874*
X32707Y45751*
X33002Y45554*
X33329Y45419*
X33677Y45349*
X34032*
X34379Y45419*
X34707Y45554*
X35002Y45751*
X35124Y45874*
X35247Y45751*
X35542Y45554*
X35869Y45419*
X36217Y45349*
X36572*
X36919Y45419*
X37247Y45554*
X37542Y45751*
X37664Y45874*
X37787Y45751*
X38082Y45554*
X38409Y45419*
X38757Y45349*
X39112*
X39459Y45419*
X39787Y45554*
X40082Y45751*
X40204Y45874*
X40327Y45751*
X40622Y45554*
X40949Y45419*
X41297Y45349*
X41652*
X41999Y45419*
X42327Y45554*
X42622Y45751*
X42744Y45874*
X42867Y45751*
X43162Y45554*
X43489Y45419*
X43837Y45349*
X44192*
X44539Y45419*
X44867Y45554*
X45162Y45751*
X45284Y45874*
X45407Y45751*
X45702Y45554*
X46029Y45419*
X46377Y45349*
X46732*
X47079Y45419*
X47407Y45554*
X47702Y45751*
X47824Y45874*
X47947Y45751*
X48242Y45554*
X48569Y45419*
X48917Y45349*
X49272*
X49619Y45419*
X49947Y45554*
X50242Y45751*
X50364Y45874*
X50487Y45751*
X50782Y45554*
X51109Y45419*
X51457Y45349*
X51812*
X52159Y45419*
X52487Y45554*
X52782Y45751*
X52904Y45874*
X53027Y45751*
X53322Y45554*
X53649Y45419*
X53997Y45349*
X54352*
X54699Y45419*
X54809Y45464*
X54914Y45393*
Y45349*
X58514*
Y45958*
X64831*
X66283Y44506*
Y43704*
X66076Y43497*
X65879Y43202*
X65744Y42874*
X65674Y42527*
Y42172*
X65744Y41824*
X65879Y41497*
X66076Y41202*
X66327Y40951*
X66622Y40754*
X66949Y40619*
X67297Y40549*
X67652*
X67999Y40619*
X68327Y40754*
X68622Y40951*
X68829Y41158*
X68832*
X82486Y27504*
X82733Y27315*
X83020Y27196*
X83329Y27155*
X83897*
X84026Y26962*
X84149Y26839*
X84026Y26717*
X83829Y26422*
X83694Y26094*
X83628Y25766*
X79228Y21366*
X79004Y21074*
X78864Y20734*
X78815Y20369*
Y18562*
X78424*
Y14962*
X82024*
Y18562*
X81633*
Y19786*
X85621Y23773*
X85949Y23839*
X86277Y23974*
X86572Y24171*
X86823Y24422*
X87020Y24717*
X87069Y24837*
X87293Y25008*
X88526Y26241*
X88750Y26533*
X88890Y26873*
X88938Y27238*
Y32107*
X88890Y32472*
X88750Y32812*
X88526Y33103*
X69958Y51671*
X69666Y51895*
X69327Y52035*
X68962Y52083*
X52313*
X49307Y55089*
X53783Y59565*
X77899*
Y59224*
X79457*
X83665Y55016*
Y50654*
X83274*
Y47054*
X86635*
X86684Y46937*
X85310Y45563*
X85252Y45574*
X84897*
X84549Y45505*
X84222Y45370*
X83927Y45173*
X83720Y44966*
X82043*
X72524Y54484*
Y54777*
X72455Y55124*
X72320Y55452*
X72123Y55747*
X71872Y55998*
X71577Y56195*
X71249Y56330*
X70902Y56399*
X70547*
X70199Y56330*
X69872Y56195*
X69577Y55998*
X69326Y55747*
X69129Y55452*
X68994Y55124*
X68924Y54777*
Y54422*
X68994Y54074*
X69129Y53747*
X69326Y53452*
X69577Y53201*
X69872Y53004*
X70199Y52869*
X70547Y52799*
X70840*
X80707Y42932*
X80954Y42743*
X81122Y42673*
X81241Y42624*
X81549Y42583*
X83720*
X83927Y42376*
X84222Y42179*
X84549Y42044*
X84897Y41974*
X85252*
X85599Y42044*
X85927Y42179*
X86222Y42376*
X86473Y42627*
X86670Y42922*
X86805Y43249*
X86874Y43597*
Y43758*
X90342Y47226*
X90531Y47472*
X90650Y47760*
X90691Y48068*
Y58899*
X90650Y59208*
X90531Y59495*
X90342Y59742*
X88426Y61658*
X88495Y61768*
X89035Y61593*
X89625Y61499*
X90224*
X90814Y61593*
X91383Y61778*
X91916Y62049*
X92400Y62401*
X92823Y62824*
X93174Y63308*
X93446Y63841*
X93631Y64410*
X93724Y65000*
Y65599*
X93631Y66189*
X93446Y66758*
X93174Y67291*
X92823Y67775*
X92400Y68198*
X91916Y68549*
X91383Y68821*
X91025Y68937*
X91045Y69064*
X94064*
Y00934*
G37*
G36*
X17411Y67530D02*
X17077Y67196D01*
X16898Y66963*
X16786Y66691*
X16747Y66399*
Y64574*
X16074*
Y61074*
X16123*
X16193Y60969*
X16144Y60849*
X16074Y60502*
Y60147*
X16130Y59867*
X16013Y59805*
X08346Y67471*
X08274Y67527*
X08315Y67647*
X17362*
X17411Y67530*
G37*
G36*
X25133Y61710D02*
Y55536D01*
X25174Y55228*
X25293Y54940*
X25482Y54694*
X25667Y54508*
X25619Y54391*
X19269*
X16406Y57254*
X16454Y57372*
X20149*
X20441Y57410*
X20713Y57523*
X20946Y57702*
X25006Y61762*
X25133Y61710*
G37*
G36*
X08762Y56343D02*
X08704Y56230D01*
X08424Y56274*
X07825*
X07235Y56181*
X06666Y55996*
X06133Y55725*
X05649Y55373*
X05226Y54950*
X04904Y54506*
X04777Y54548*
Y58349*
X06755*
X08762Y56343*
G37*
G36*
X16665Y51865D02*
X16620Y51730D01*
X16570Y51723*
X07985Y60308*
X07752Y60487*
X07549Y60571*
Y60814*
X07667Y60863*
X16665Y51865*
G37*
G36*
X14454Y50651D02*
X14405Y50534D01*
X11522*
X11456Y50642*
X11646Y51016*
X11831Y51585*
X11924Y52175*
Y52774*
X11880Y53054*
X11993Y53112*
X14454Y50651*
G37*
G36*
X88308Y58406D02*
Y48561D01*
X86992Y47245*
X86874Y47294*
Y50654*
X86483*
Y55599*
X86435Y55964*
X86295Y56304*
X86071Y56596*
X81499Y61167*
Y62724*
X77899*
Y62383*
X53199*
X52835Y62335*
X52495Y62195*
X52203Y61971*
X47118Y56886*
X46789Y56820*
X46462Y56685*
X46167Y56488*
X46044Y56365*
X45922Y56488*
X45627Y56685*
X45299Y56820*
X44952Y56889*
X44597*
X44249Y56820*
X43922Y56685*
X43627Y56488*
X43504Y56365*
X43382Y56488*
X43087Y56685*
X42759Y56820*
X42412Y56889*
X42057*
X41709Y56820*
X41382Y56685*
X41087Y56488*
X40854Y56255*
X40558Y56483*
X40209Y56627*
X39834Y56677*
X39460Y56627*
X39241Y56537*
X37154*
X36780Y56488*
X36431Y56343*
X36208Y56172*
X36042Y56193*
X36013Y56237*
X35762Y56488*
X35467Y56685*
X35139Y56820*
X34792Y56889*
X34437*
X34089Y56820*
X33762Y56685*
X33467Y56488*
X33344Y56365*
X33222Y56488*
X32927Y56685*
X32599Y56820*
X32252Y56889*
X31897*
X31549Y56820*
X31440Y56775*
X31334Y56846*
Y56889*
X27734*
Y56281*
X27516*
Y61281*
X27753Y61518*
X28180*
X28387Y61311*
X28682Y61114*
X29009Y60979*
X29357Y60909*
X29518*
X31371Y59057*
X31617Y58868*
X31905Y58749*
X32213Y58708*
X44636*
X44944Y58749*
X45231Y58868*
X45478Y59057*
X47331Y60909*
X47492*
X47839Y60979*
X48167Y61114*
X48462Y61311*
X48713Y61562*
X48910Y61857*
X49045Y62184*
X49114Y62532*
Y62693*
X53304Y66883*
X79831*
X88308Y58406*
G37*
G36*
X46167Y53691D02*
X46462Y53494D01*
X46789Y53359*
X47118Y53293*
X50733Y49678*
X51025Y49454*
X51365Y49313*
X51729Y49265*
X68378*
X86120Y31523*
Y29884*
X86015Y29813*
X85949Y29840*
X85602Y29909*
X85247*
X84899Y29840*
X84572Y29705*
X84322Y29538*
X83822*
X70168Y43192*
X69921Y43381*
X69634Y43500*
X69325Y43541*
X68829*
X68666Y43704*
Y44999*
X68625Y45308*
X68506Y45595*
X68317Y45842*
X66167Y47992*
X65920Y48181*
X65633Y48300*
X65324Y48341*
X58514*
Y48949*
X54914*
Y48906*
X54809Y48835*
X54699Y48880*
X54352Y48949*
X53997*
X53649Y48880*
X53322Y48745*
X53027Y48548*
X52904Y48425*
X52782Y48548*
X52487Y48745*
X52159Y48880*
X51812Y48949*
X51457*
X51109Y48880*
X50782Y48745*
X50487Y48548*
X50364Y48425*
X50242Y48548*
X49947Y48745*
X49619Y48880*
X49272Y48949*
X48917*
X48569Y48880*
X48242Y48745*
X47947Y48548*
X47824Y48425*
X47702Y48548*
X47407Y48745*
X47079Y48880*
X46732Y48949*
X46377*
X46029Y48880*
X45702Y48745*
X45407Y48548*
X45284Y48425*
X45162Y48548*
X44867Y48745*
X44539Y48880*
X44192Y48949*
X43837*
X43489Y48880*
X43162Y48745*
X42867Y48548*
X42744Y48425*
X42622Y48548*
X42327Y48745*
X41999Y48880*
X41652Y48949*
X41297*
X40949Y48880*
X40622Y48745*
X40327Y48548*
X40204Y48425*
X40082Y48548*
X40037Y48578*
X40025Y48704*
X44610Y53289*
X44952*
X45299Y53359*
X45627Y53494*
X45922Y53691*
X46044Y53814*
X46167Y53691*
G37*
G36*
X05226Y49999D02*
X05649Y49576D01*
X06133Y49224*
X06666Y48953*
X07235Y48768*
X07825Y48674*
X08207*
X08263Y48561*
X08193Y48469*
X08080Y48197*
X08042Y47906*
X08042*
Y38530*
X08042*
X08080Y38238*
X08193Y37966*
X08372Y37733*
X22567Y23538*
Y21561*
X22547Y21548*
X22424Y21425*
X22302Y21548*
X22282Y21561*
Y23069*
X22243Y23361*
X22131Y23633*
X21951Y23866*
X04777Y41041*
Y50401*
X04904Y50443*
X05226Y49999*
G37*
G36*
X20027Y22603D02*
Y21561D01*
X20007Y21548*
X19884Y21425*
X19762Y21548*
X19467Y21745*
X19139Y21880*
X18792Y21949*
X18437*
X18089Y21880*
X17762Y21745*
X17467Y21548*
X17344Y21425*
X17222Y21548*
X16927Y21745*
X16599Y21880*
X16252Y21949*
X15897*
X15549Y21880*
X15222Y21745*
X14927Y21548*
X14804Y21425*
X14682Y21548*
X14387Y21745*
X14059Y21880*
X13712Y21949*
X13357*
X13009Y21880*
X12682Y21745*
X12387Y21548*
X12264Y21425*
X12142Y21548*
X11847Y21745*
X11519Y21880*
X11172Y21949*
X10817*
X10469Y21880*
X10142Y21745*
X09847Y21548*
X09596Y21297*
X09399Y21002*
X09371Y20934*
X09247Y20910*
X03352Y26805*
Y39112*
X03469Y39161*
X20027Y22603*
G37*
%LNpcb1-2*%
%LPC*%
G36*
X56892Y21949D02*
X56537D01*
X56189Y21880*
X55862Y21745*
X55567Y21548*
X55444Y21425*
X55322Y21548*
X55027Y21745*
X54699Y21880*
X54352Y21949*
X53997*
X53649Y21880*
X53322Y21745*
X53027Y21548*
X52904Y21425*
X52782Y21548*
X52487Y21745*
X52159Y21880*
X51812Y21949*
X51457*
X51109Y21880*
X50782Y21745*
X50487Y21548*
X50364Y21425*
X50242Y21548*
X49947Y21745*
X49619Y21880*
X49272Y21949*
X48917*
X48569Y21880*
X48242Y21745*
X47947Y21548*
X47824Y21425*
X47702Y21548*
X47407Y21745*
X47079Y21880*
X46732Y21949*
X46377*
X46029Y21880*
X45702Y21745*
X45407Y21548*
X45284Y21425*
X45162Y21548*
X44867Y21745*
X44539Y21880*
X44192Y21949*
X43837*
X43489Y21880*
X43162Y21745*
X42867Y21548*
X42616Y21297*
X42419Y21002*
X42284Y20674*
X42214Y20327*
Y19972*
X42284Y19624*
X42419Y19297*
X42616Y19002*
X42867Y18751*
X42867Y18751*
Y16525*
X42827Y16498*
X42576Y16247*
X42379Y15952*
X42244Y15624*
X42174Y15277*
Y14922*
X42244Y14574*
X42379Y14247*
X42576Y13952*
X42827Y13701*
X43122Y13504*
X43449Y13369*
X43797Y13299*
X44152*
X44499Y13369*
X44827Y13504*
X45122Y13701*
X45373Y13952*
X45386Y13972*
X46660*
X46849Y13947*
X46906*
X47102Y13751*
X47397Y13554*
X47724Y13419*
X48072Y13349*
X48427*
X48774Y13419*
X49102Y13554*
X49397Y13751*
X49648Y14002*
X49845Y14297*
X49980Y14624*
X50049Y14972*
Y15327*
X49980Y15674*
X49845Y16002*
X49648Y16297*
X49397Y16548*
X49102Y16745*
X48774Y16880*
X48427Y16949*
X48072*
X47724Y16880*
X47397Y16745*
X47102Y16548*
X46851Y16297*
X46804Y16227*
X45386*
X45373Y16247*
X45122Y16498*
X45122Y16498*
Y18724*
X45162Y18751*
X45284Y18874*
X45407Y18751*
X45702Y18554*
X46029Y18419*
X46377Y18349*
X46732*
X47079Y18419*
X47407Y18554*
X47702Y18751*
X47824Y18874*
X47947Y18751*
X48242Y18554*
X48569Y18419*
X48917Y18349*
X49272*
X49619Y18419*
X49947Y18554*
X50242Y18751*
X50364Y18874*
X50487Y18751*
X50782Y18554*
X51109Y18419*
X51457Y18349*
X51812*
X52159Y18419*
X52487Y18554*
X52782Y18751*
X52904Y18874*
X53027Y18751*
X53322Y18554*
X53649Y18419*
X53997Y18349*
X54352*
X54699Y18419*
X55027Y18554*
X55322Y18751*
X55444Y18874*
X55567Y18751*
X55862Y18554*
X56189Y18419*
X56537Y18349*
X56892*
X57239Y18419*
X57567Y18554*
X57862Y18751*
X58113Y19002*
X58310Y19297*
X58445Y19624*
X58514Y19972*
Y20327*
X58445Y20674*
X58310Y21002*
X58113Y21297*
X57862Y21548*
X57567Y21745*
X57239Y21880*
X56892Y21949*
G37*
G36*
X66699Y24649D02*
X66100D01*
X65510Y24556*
X64941Y24371*
X64408Y24099*
X63924Y23748*
X63501Y23325*
X63149Y22841*
X62878Y22308*
X62693Y21739*
X62599Y21149*
Y20550*
X62693Y19960*
X62878Y19391*
X63149Y18858*
X63501Y18374*
X63924Y17951*
X64408Y17599*
X64941Y17328*
X65510Y17143*
X66100Y17049*
X66699*
X67289Y17143*
X67858Y17328*
X68391Y17599*
X68875Y17951*
X69298Y18374*
X69649Y18858*
X69921Y19391*
X70106Y19960*
X70199Y20550*
Y21149*
X70106Y21739*
X69921Y22308*
X69649Y22841*
X69298Y23325*
X68875Y23748*
X68391Y24099*
X67858Y24371*
X67289Y24556*
X66699Y24649*
G37*
G36*
X70327Y12999D02*
X69972D01*
X69624Y12930*
X69297Y12795*
X69002Y12598*
X68751Y12347*
X68554Y12052*
X68419Y11724*
X68349Y11377*
Y11022*
X68419Y10674*
X68554Y10347*
X68751Y10052*
X69002Y09801*
X69297Y09604*
X69624Y09469*
X69972Y09399*
X70327*
X70674Y09469*
X71002Y09604*
X71148Y09702*
X73224*
Y09349*
X76824*
Y09535*
X82999*
Y09124*
X86599*
Y12724*
X82999*
Y12429*
X76824*
Y12849*
X73224*
Y12597*
X71298*
X71297Y12598*
X71002Y12795*
X70674Y12930*
X70327Y12999*
G37*
G36*
X61949D02*
X58349D01*
Y10993*
X53633Y06277*
X50049*
Y06949*
X46449*
Y03349*
X50049*
Y04022*
X54099*
X54391Y04061*
X54663Y04173*
X54896Y04352*
X59944Y09399*
X61949*
Y12999*
G37*
G36*
X07624Y11974D02*
X07025D01*
X06435Y11881*
X05866Y11696*
X05333Y11424*
X04849Y11073*
X04426Y10650*
X04074Y10166*
X03803Y09633*
X03618Y09064*
X03524Y08474*
Y07875*
X03618Y07285*
X03803Y06716*
X04074Y06183*
X04426Y05699*
X04849Y05276*
X05333Y04924*
X05866Y04653*
X06435Y04468*
X07025Y04374*
X07624*
X08214Y04468*
X08783Y04653*
X09316Y04924*
X09800Y05276*
X10223Y05699*
X10575Y06183*
X10846Y06716*
X11031Y07285*
X11124Y07875*
Y08474*
X11031Y09064*
X10846Y09633*
X10575Y10166*
X10223Y10650*
X09800Y11073*
X09316Y11424*
X08783Y11696*
X08214Y11881*
X07624Y11974*
G37*
G36*
X80402Y07686D02*
X80047D01*
X79699Y07617*
X79372Y07482*
X79077Y07285*
X78826Y07034*
X78629Y06739*
X78494Y06411*
X78424Y06064*
Y05709*
X78494Y05361*
X78629Y05034*
X78826Y04739*
X79077Y04488*
X79372Y04291*
X79699Y04156*
X80047Y04086*
X80402*
X80749Y04156*
X81077Y04291*
X81279Y04426*
X83682*
X83947Y04249*
X84274Y04114*
X84622Y04044*
X84977*
X85324Y04114*
X85652Y04249*
X85947Y04446*
X86198Y04697*
X86395Y04992*
X86530Y05319*
X86599Y05667*
Y06022*
X86530Y06369*
X86395Y06697*
X86198Y06992*
X85947Y07243*
X85652Y07440*
X85324Y07575*
X84977Y07644*
X84622*
X84274Y07575*
X83947Y07440*
X83655Y07244*
X81412*
X81372Y07285*
X81077Y07482*
X80749Y07617*
X80402Y07686*
G37*
%LNpcb1-3*%
%LPD*%
G54D10*
X37024Y52799D02*
X37073Y52848D01*
Y55008D02*
X37154Y55089D01*
X37073Y52848D02*
Y55008D01*
X39694Y55089D02*
X39834Y55229D01*
X37154Y55089D02*
X39694D01*
X75142Y10982D02*
X84799D01*
X70149Y11199D02*
X70199Y11149D01*
X74974*
X75024Y11099*
X75142Y10982*
G54D11*
X47314Y62709D03*
X44774D03*
X42234D03*
X39694D03*
X37154D03*
X34614D03*
X32074D03*
X29534D03*
X47314Y55089D03*
X44774D03*
X42234D03*
X39694D03*
X37154D03*
X34614D03*
X32074D03*
X53399Y52799D03*
X37024D03*
X10994Y47149D03*
X54174D03*
X51634D03*
X49094D03*
X46554D03*
X44014D03*
X41474D03*
X38934D03*
X36394D03*
X33854D03*
X31314D03*
X28774D03*
X26234D03*
X23694D03*
X21154D03*
X18614D03*
X16074D03*
X13534D03*
X10994Y20149D03*
X13534D03*
X16074D03*
X18614D03*
X21154D03*
X23694D03*
X26234D03*
X28774D03*
X31314D03*
X33854D03*
X36394D03*
X38934D03*
X41474D03*
X44014D03*
X46554D03*
X49094D03*
X51634D03*
X54174D03*
X56714D03*
X84799Y08384D03*
Y05844D03*
X76074Y29124D03*
X75999Y39449D03*
X60199Y65149D03*
X60149Y55624D03*
X35499Y04649D03*
X38039D03*
X67474Y42349D03*
X17874Y60325D03*
X85424Y25569D03*
Y28109D03*
X43974Y15099D03*
X85074Y43774D03*
Y46314D03*
X28649Y04574D03*
X70724Y54599D03*
X79699Y63474D03*
X05749Y62599D03*
X48249Y15149D03*
X70149Y11199D03*
X75024Y08599D03*
X80224Y05886D03*
G54D12*
X29534Y55089D03*
X85424Y30649D03*
X43974Y05099D03*
X85074Y48854D03*
X28649Y14574D03*
X48249Y05149D03*
X80224Y16762D03*
G54D13*
X56714Y47149D03*
X84799Y10924D03*
X60149Y11199D03*
G54D14*
X08124Y52474D03*
X89924Y65299D03*
X66399Y20849D03*
X07324Y08174D03*
G54D15*
X64974Y42349D03*
X68224Y54599D03*
G54D16*
X17874Y62824D03*
X79699Y60974D03*
X05749Y60099D03*
X75024Y11099D03*
G54D17*
X84748Y05835D02*
X84799Y05784D01*
X80275Y05835D02*
X84748D01*
X80224Y20369D02*
X85424Y25569D01*
X80224Y16762D02*
Y20369D01*
Y05886D02*
X80275Y05835D01*
X51729Y50674D02*
X68962D01*
X47314Y55089D02*
X51729Y50674D01*
X68962D02*
X87529Y32107D01*
Y27238D02*
Y32107D01*
X86296Y26005D02*
X87529Y27238D01*
X86078Y26005D02*
X86296D01*
X47314Y55089D02*
X53199Y60974D01*
X79699*
X85074Y48854D02*
Y55599D01*
X80103Y60571D02*
Y60621D01*
X79699Y60974D02*
X79749D01*
X80103Y60621*
Y60571D02*
X85074Y55599D01*
G54D18*
X00952Y66252D02*
X03474Y68774D01*
X38751D02*
X44774Y62751D01*
X03474Y68774D02*
X38751D01*
X30960Y66363D02*
X32789Y64535D01*
X17874Y66399D02*
X18981Y67506D01*
X37479*
X42234Y62751*
X25113Y66363D02*
X30960D01*
X19220Y60470D02*
X25113Y66363D01*
X00952Y25994D02*
X09765Y17181D01*
X00952Y25994D02*
Y66252D01*
X16149Y50549D02*
X37736D01*
X05749Y60099D02*
X06338Y59511D01*
X07188*
X16149Y50549*
X35135Y05174D02*
X35504D01*
X28649Y04574D02*
X34535D01*
X35135Y05174*
X48249Y05149D02*
X54099D01*
X60149Y11199*
X32789Y64535D02*
X32831D01*
X34614Y62709D02*
Y62751D01*
X32831Y64535D02*
X34614Y62751D01*
X02224Y26338D02*
X10238Y18324D01*
X02224Y26338D02*
Y65399D01*
X03499Y66675*
X03649Y40574D02*
Y64599D01*
X04074Y65024*
X03649Y40574D02*
X21154Y23069D01*
X07549Y66675D02*
X15725Y58499D01*
X03499Y66675D02*
X07549D01*
X07042Y65024D02*
X18802Y53264D01*
X04074Y65024D02*
X07042D01*
X32074Y53899D02*
Y54720D01*
Y54905D02*
Y55089D01*
Y54720D02*
Y54905D01*
X31439Y53264D02*
X32074Y53899D01*
X18802Y53264D02*
X31439D01*
X34614Y52939D02*
Y55089D01*
X18249Y51874D02*
X33549D01*
X34614Y52939*
X44774Y55149D02*
D01*
Y55089D02*
Y55149D01*
X10670Y49406D02*
X39133D01*
X37736Y50549D02*
X42234Y55048D01*
X05927Y62422D02*
X07702D01*
X18249Y51874*
X05749Y62599D02*
X05927Y62422D01*
X15725Y58499D02*
X20149D01*
X26185Y64535D02*
X30291D01*
X20149Y58499D02*
X26185Y64535D01*
X18020Y60470D02*
X19220D01*
X17874Y62824D02*
Y66399D01*
X43974Y15099D02*
X46824D01*
X46849Y15074D02*
X48224D01*
X46824Y15099D02*
X46849Y15074D01*
X43994Y15119D02*
Y20129D01*
X43974Y15099D02*
X43994Y15119D01*
Y20129D02*
X44014Y20149D01*
X23694D02*
Y24004D01*
X21154Y20149D02*
Y23069D01*
X09169Y38530D02*
X23694Y24004D01*
X39133Y49406D02*
X44774Y55048D01*
X09169Y38530D02*
Y47906D01*
X44774Y55048D02*
Y55089D01*
X09169Y47906D02*
X10670Y49406D01*
X17874Y60325D02*
X18020Y60470D01*
X30291Y64535D02*
X32074Y62751D01*
X09765Y17181D02*
X23308D01*
X26234Y20108*
Y20149*
X44774Y62709D02*
Y62751D01*
X16831Y18324D02*
X18614Y20108D01*
X10238Y18324D02*
X16831D01*
X42234Y62709D02*
Y62751D01*
X32074Y62709D02*
Y62751D01*
X18614Y20108D02*
Y20149D01*
X42234Y55048D02*
Y55089D01*
G54D19*
X89499Y48068D02*
Y58899D01*
X52811Y68074D02*
X80324D01*
X89499Y58899*
X70724Y54599D02*
X81549Y43774D01*
X85074*
X47380Y62644D02*
X52811Y68074D01*
X44636Y59899D02*
X47380Y62644D01*
X29534Y62578D02*
X32213Y59899D01*
X44636*
X69325Y42349D02*
X83329Y28346D01*
X67474Y42349D02*
X69325D01*
X65324Y47149D02*
X67474Y44999D01*
Y42349D02*
Y44999D01*
X56714Y47149D02*
X65324D01*
X85074Y43774D02*
X85206D01*
X89499Y48068*
X26771Y55089D02*
X29534D01*
X26324Y55536D02*
X26771Y55089D01*
X26324Y55536D02*
Y61774D01*
X27259Y62709D02*
X29534D01*
X26324Y61774D02*
X27259Y62709D01*
X83329Y28346D02*
X85188D01*
X85424Y28109*
G54D20*
X28649Y14574D02*
X28774Y14699D01*
Y20149*
G54D21*
X32171Y02378D02*
X32421Y02628D01*
X32921*
X33170Y02378*
Y02128*
X32921Y01878*
X32421*
X32171Y01628*
Y01378*
X32421Y01128*
X32921*
X33170Y01378*
X31421Y02128D02*
X30921D01*
X30671Y01878*
Y01128*
X31421*
X31671Y01378*
X31421Y01628*
X30671*
X30171Y01128D02*
Y02128D01*
X29922*
X29672Y01878*
Y01128*
Y01878*
X29422Y02128*
X29172Y01878*
Y01128*
X28672Y02128D02*
Y01378D01*
X28422Y01128*
X27672*
Y02128*
X26423Y01128D02*
X26922D01*
X27172Y01378*
Y01878*
X26922Y02128*
X26423*
X26173Y01878*
Y01628*
X27172*
X25673Y01128D02*
X25173D01*
X25423*
Y02628*
X25673*
X22924D02*
X21924D01*
X22424*
Y01128*
X21174D02*
X20675D01*
X20425Y01378*
Y01878*
X20675Y02128*
X21174*
X21424Y01878*
Y01378*
X21174Y01128*
X19925Y02128D02*
Y01128D01*
Y01628*
X19675Y01878*
X19425Y02128*
X19175*
X18175Y02378D02*
Y02128D01*
X18425*
X17925*
X18175*
Y01378*
X17925Y01128*
X16926D02*
X16426D01*
X16176Y01378*
Y01878*
X16426Y02128*
X16926*
X17176Y01878*
Y01378*
X16926Y01128*
X15676D02*
X15176D01*
X15426*
Y02628*
X15676*
X14177Y02128D02*
X13677D01*
X13427Y01878*
Y01128*
X14177*
X14427Y01378*
X14177Y01628*
X13427*
X11427Y01878D02*
X10428D01*
X07429Y01128D02*
X08428D01*
X07429Y02128*
Y02378*
X07679Y02628*
X08179*
X08428Y02378*
X05929Y01128D02*
X06929D01*
X05929Y02128*
Y02378*
X06179Y02628*
X06679*
X06929Y02378*
X05429D02*
X05180Y02628D01*
X04680*
X04430Y02378*
Y01378*
X04680Y01128*
X05180*
X05429Y01378*
Y02378*
X03930Y01378D02*
X03680Y01128D01*
X03180*
X02930Y01378*
Y02378*
X03180Y02628*
X03680*
X03930Y02378*
Y02128*
X03680Y01878*
X02930*
X01681Y01128D02*
Y02628D01*
X02430Y01878*
X01431*
M02*