%FSDAX23Y23*%
%MOIN*%
%SFA1B1*%

%IPPOS*%
%ADD9500C,0.030000*%
%ADD9501C,0.035000*%
%ADD9502C,0.039000*%
%ADD9503C,0.118000*%
%LNpcb1-1*%
%LPD*%
G54D9500*
X02368Y02190D03*
G54D9501*
X01731Y00201D03*
X01900Y00203D03*
Y00596D03*
X01731Y00594D03*
X02368Y00441D03*
X02762D03*
X01128Y00574D03*
Y00180D03*
G54D9502*
X03158Y00232D03*
X03339Y00230D03*
Y00330D03*
Y00430D03*
X03158Y00660D03*
X02954Y00437D03*
Y00339D03*
X02233Y00793D03*
X02133D03*
X02033D03*
X01933D03*
X01833D03*
X01733D03*
X01633D03*
X01533D03*
X01433D03*
X01333D03*
X01233D03*
X01133D03*
X01033D03*
X00933D03*
X00833D03*
X00733D03*
X00633D03*
X00533D03*
X00433D03*
X01398Y00183D03*
X01498D03*
X01533Y01856D03*
X01433D03*
X01333D03*
X01233D03*
X01133D03*
X01033D03*
X00933D03*
X00833D03*
X00733D03*
X00633D03*
X00533D03*
X00433D03*
X00226Y02366D03*
Y02465D03*
X00704Y02473D03*
Y02375D03*
X01163Y02469D03*
X01263D03*
X01363D03*
X01463D03*
X01563D03*
Y02169D03*
X01463D03*
X01458Y02079D03*
X01363Y02169D03*
X01263D03*
X01163D03*
X01663D03*
X01763D03*
X01863D03*
Y02469D03*
X01763D03*
X01663D03*
X01633Y01856D03*
X01733D03*
X01833D03*
X01933D03*
X02033D03*
X02133D03*
X02233D03*
X02102Y02079D03*
X02686Y02150D03*
X02784D03*
X02656Y01667D03*
X02558D03*
X02992Y01553D03*
X02995Y01147D03*
X03363Y01107D03*
Y01007D03*
Y01207D03*
X03349Y01723D03*
Y01823D03*
Y01923D03*
X03138Y02401D03*
Y02499D03*
X02370Y02565D03*
G54D9503*
X02614Y00821D03*
X00288Y00322D03*
X00320Y02066D03*
X03540Y02571D03*
M02*